<svg xmlns="http://www.w3.org/2000/svg" viewBox="0 0 256 256" width="256" height="256" fill="none">
<defs>
  <filter id="shadow" x="-30%" y="-30%" width="160%" height="160%">
    <feDropShadow dx="0" dy="8" stdDeviation="10" flood-color="#000000" flood-opacity="0.18"/>
  </filter>
  <filter id="glow" x="-40%" y="-40%" width="180%" height="180%">
    <feGaussianBlur stdDeviation="6" result="blur"/>
    <feMerge><feMergeNode in="blur"/><feMergeNode in="SourceGraphic"/></feMerge>
  </filter>
  <radialGradient id="shine" cx="30%" cy="24%" r="70%">
    <stop offset="0%" stop-color="#ffffff" stop-opacity="0.95"/>
    <stop offset="22%" stop-color="#ffffff" stop-opacity="0.45"/>
    <stop offset="48%" stop-color="#ffffff" stop-opacity="0.12"/>
    <stop offset="100%" stop-color="#ffffff" stop-opacity="0"/>
  </radialGradient>
  <linearGradient id="edgeGloss" x1="0" y1="0" x2="1" y2="1">
    <stop offset="0%" stop-color="#ffffff" stop-opacity="0.9"/>
    <stop offset="30%" stop-color="#ffffff" stop-opacity="0.28"/>
    <stop offset="100%" stop-color="#ffffff" stop-opacity="0"/>
  </linearGradient>
</defs>

<defs>
  <linearGradient id="gemFillA" x1="70" y1="24" x2="186" y2="220" gradientUnits="userSpaceOnUse">
    <stop offset="0%" stop-color="#eefeff"/>
    <stop offset="18%" stop-color="#bdf7ff"/>
    <stop offset="45%" stop-color="#69dcf5"/>
    <stop offset="78%" stop-color="#2ca4d6"/>
    <stop offset="100%" stop-color="#15638f"/>
  </linearGradient>
  <linearGradient id="facetA1" x1="82" y1="62" x2="153" y2="149" gradientUnits="userSpaceOnUse">
    <stop offset="0%" stop-color="#ffffff" stop-opacity="0.95"/>
    <stop offset="100%" stop-color="#8aeaff" stop-opacity="0.15"/>
  </linearGradient>
  <linearGradient id="facetA2" x1="140" y1="94" x2="198" y2="190" gradientUnits="userSpaceOnUse">
    <stop offset="0%" stop-color="#9beeff" stop-opacity="0.18"/>
    <stop offset="100%" stop-color="#0f6697" stop-opacity="0.45"/>
  </linearGradient>
</defs>
<g filter="url(#shadow)">
  <path d="M128 22C105 55 59 88 59 139c0 50 31 82 69 82s69-32 69-82c0-51-46-84-69-117z" fill="url(#gemFillA)" stroke="#e9feff" stroke-width="7" stroke-linejoin="round"/>
  <path d="M128 39c-15 22-39 40-47 73 16-8 33-12 47-13 0-22 0-38 0-60z" fill="url(#facetA1)" opacity="0.95"/>
  <path d="M128 99c-17 1-35 5-50 14 7 42 28 84 50 96V99z" fill="#66d8f7" opacity="0.24"/>
  <path d="M128 99v110c28-16 48-54 52-92-16-11-31-16-52-18z" fill="url(#facetA2)" opacity="0.9"/>
  <path d="M128 39c14 22 38 40 47 72-14-8-31-12-47-13V39z" fill="#ffffff" opacity="0.32"/>
  <ellipse cx="102" cy="85" rx="24" ry="16" transform="rotate(-24 102 85)" fill="#ffffff" opacity="0.72"/>
  <ellipse cx="117" cy="67" rx="12" ry="7" transform="rotate(-22 117 67)" fill="#ffffff" opacity="0.86"/>
  <path d="M86 127c21-10 64-11 90 2" stroke="#ffffff" stroke-opacity="0.5" stroke-width="5" stroke-linecap="round"/>
  <path d="M94 164c16 10 49 11 68 2" stroke="#d9ffff" stroke-opacity="0.48" stroke-width="4" stroke-linecap="round"/>
</g>

<g opacity="0.95">
  <path d="M58 58l4 12 12 4-12 4-4 12-4-12-12-4 12-4 4-12z" fill="#fff8d8"/>
  <path d="M201 72l3 9 9 3-9 3-3 9-3-9-9-3 9-3 3-9z" fill="#fff8d8" opacity="0.85"/>
  <circle cx="198" cy="175" r="3.5" fill="#ffffff" opacity="0.9"/>
  <circle cx="64" cy="184" r="2.5" fill="#ffffff" opacity="0.75"/>
</g>
</svg>