<svg xmlns="http://www.w3.org/2000/svg" viewBox="-46 -46 92 92" width="92" height="92">
  <polygon points="0,-43 11,-15 41,-14 17,6 26,35 0,18 -26,35 -17,6 -41,-14 -11,-15" fill="#5E3405"/>
  <polygon points="0,-40 10,-13 38,-12 16,5 23,32 0,17 -23,32 -16,5 -38,-12 -10,-13" fill="#BA7517"/>
  <polygon points="0,-40 10,-13 0,-7 -10,-13" fill="#FAC775"/>
  <polygon points="10,-13 38,-12 16,5 0,-7" fill="#D88C18"/>
  <polygon points="-10,-13 -38,-12 -16,5 0,-7" fill="#C07C12"/>
  <polygon points="0,17 23,32 16,5 0,-7" fill="#9C5E0A"/>
  <polygon points="0,17 -23,32 -16,5 0,-7" fill="#AC6C0E"/>
  <ellipse cx="-5" cy="-26" rx="4" ry="7" fill="#FDE5A8" opacity="0.78" transform="rotate(-15,-5,-26)"/>
</svg>
