<svg xmlns="http://www.w3.org/2000/svg" viewBox="0 0 256 256" width="256" height="256" fill="none">
<defs>
  <filter id="shadow" x="-30%" y="-30%" width="160%" height="160%">
    <feDropShadow dx="0" dy="8" stdDeviation="10" flood-color="#000000" flood-opacity="0.18"/>
  </filter>
  <filter id="glow" x="-40%" y="-40%" width="180%" height="180%">
    <feGaussianBlur stdDeviation="6" result="blur"/>
    <feMerge><feMergeNode in="blur"/><feMergeNode in="SourceGraphic"/></feMerge>
  </filter>
  <radialGradient id="shine" cx="30%" cy="24%" r="70%">
    <stop offset="0%" stop-color="#ffffff" stop-opacity="0.95"/>
    <stop offset="22%" stop-color="#ffffff" stop-opacity="0.45"/>
    <stop offset="48%" stop-color="#ffffff" stop-opacity="0.12"/>
    <stop offset="100%" stop-color="#ffffff" stop-opacity="0"/>
  </radialGradient>
  <linearGradient id="edgeGloss" x1="0" y1="0" x2="1" y2="1">
    <stop offset="0%" stop-color="#ffffff" stop-opacity="0.9"/>
    <stop offset="30%" stop-color="#ffffff" stop-opacity="0.28"/>
    <stop offset="100%" stop-color="#ffffff" stop-opacity="0"/>
  </linearGradient>
</defs>

<defs>
  <linearGradient id="gemFillC" x1="41" y1="31" x2="212" y2="229" gradientUnits="userSpaceOnUse">
    <stop offset="0%" stop-color="#fffbe6"/>
    <stop offset="18%" stop-color="#ffe79f"/>
    <stop offset="45%" stop-color="#ffc944"/>
    <stop offset="76%" stop-color="#e39014"/>
    <stop offset="100%" stop-color="#8a4a07"/>
  </linearGradient>
</defs>
<g filter="url(#shadow)">
  <path d="M128 23l26 52 57 8-42 41 10 58-51-27-51 27 10-58-42-41 57-8 26-52z" fill="url(#gemFillC)" stroke="#fff7d1" stroke-width="7" stroke-linejoin="round"/>
  <path d="M128 35l-16 52 16 24 16-24-16-52z" fill="#ffffff" opacity="0.36"/>
  <path d="M87 92l41 19 41-19-25 32 9 45-25-14-25 14 9-45-25-32z" fill="#ffde67" opacity="0.24"/>
  <path d="M128 111l-41-19 25 32-9 45 25-14 25 14-9-45 25-32-41 19z" stroke="#fff8dc" stroke-opacity="0.48" stroke-width="4.5" stroke-linejoin="round"/>
  <ellipse cx="101" cy="79" rx="22" ry="13" transform="rotate(-18 101 79)" fill="#ffffff" opacity="0.68"/>
  <ellipse cx="120" cy="60" rx="11" ry="6" transform="rotate(-16 120 60)" fill="#ffffff" opacity="0.88"/>
  <path d="M73 88c16-1 35 0 55 10" stroke="#ffffff" stroke-opacity="0.35" stroke-width="5" stroke-linecap="round"/>
</g>

<g opacity="0.95">
  <path d="M58 58l4 12 12 4-12 4-4 12-4-12-12-4 12-4 4-12z" fill="#fff8d8"/>
  <path d="M201 72l3 9 9 3-9 3-3 9-3-9-9-3 9-3 3-9z" fill="#fff8d8" opacity="0.85"/>
  <circle cx="198" cy="175" r="3.5" fill="#ffffff" opacity="0.9"/>
  <circle cx="64" cy="184" r="2.5" fill="#ffffff" opacity="0.75"/>
</g>
</svg>