<svg xmlns="http://www.w3.org/2000/svg" viewBox="-46 -46 92 92" width="92" height="92">
  <polygon points="0,-43 43,0 0,43 -43,0" fill="#254A08"/>
  <polygon points="0,-40 40,0 0,40 -40,0" fill="#639922"/>
  <polygon points="0,-40 20,-16 0,-8 -20,-16" fill="#97C459"/>
  <polygon points="-40,0 -20,-16 0,-8 0,8 -20,16" fill="#4B7812"/>
  <polygon points="40,0 20,-16 0,-8 0,8 20,16" fill="#38680A"/>
  <polygon points="0,40 20,16 0,8 -20,16" fill="#426010"/>
  <ellipse cx="-10" cy="-24" rx="5" ry="7" fill="#D0E890" opacity="0.78" transform="rotate(15,-10,-24)"/>
</svg>
