<svg xmlns="http://www.w3.org/2000/svg" viewBox="-46 -46 92 92" width="92" height="92">
  <path d="M0,37 C-5,27 -31,15 -31,-5 A20,20 0 0,1 0,-21 A20,20 0 0,1 31,-5 C31,15 5,27 0,37Z" fill="#7A2242"/>
  <path d="M0,34 C-4,24 -28,13 -28,-4 A18,18 0 0,1 0,-18 A18,18 0 0,1 28,-4 C28,13 4,24 0,34Z" fill="#D4537E"/>
  <path d="M0,-18 Q-17,-18 -21,-8 L-14,-2 L0,-2Z" fill="#ED93B1"/>
  <path d="M0,-18 Q17,-18 21,-8 L14,-2 L0,-2Z" fill="#BC366A"/>
  <path d="M0,-2 L-13,14 L0,34 L13,14Z" fill="#A82558"/>
  <path d="M-28,-4 L-13,14 L0,-2 L-21,-8Z" fill="#C04572"/>
  <path d="M28,-4 L13,14 L0,-2 L21,-8Z" fill="#982050"/>
  <ellipse cx="-11" cy="-12" rx="5" ry="7" fill="#FACFDF" opacity="0.78" transform="rotate(-20,-11,-12)"/>
</svg>
